# xmcd CD database file
#
# Track frame offsets:
#	150
#	9025
#	28925
#	47083
#	63765
#	80448
#	100125
#	115883
#	131400
#	149663
#	164888
#	184368
#
# Disc length: 2513 seconds
#
# Revision: 0
# Processed by: cddbd v1.5.1PL0 Copyright (c) Steve Scherf et al.
# Submitted via: CDex 1.51
#
DISCID=a409cf0c
DTITLE=久米小百合 - テヒリーム33
DYEAR=1900
DGENRE=Japanese Unclassifiable
TTITLE0=小さき星は -讃美歌455番-
TTITLE1=主をほめよわが心 -讃美歌20番-
TTITLE2=主よ、主の愛をば -讃美歌342番-
TTITLE3=いともかしこし -讃美歌502番-
TTITLE4=くすしき神 -讃美歌73番-
TTITLE5=いさおなき我を -讃美歌271番-
TTITLE6=風激しく -讃美歌126番-
TTITLE7=いとも尊き -讃美歌191番-
TTITLE8=イエス君はいとうるわし -讃美歌166番-
TTITLE9=地よ声高く -讃美歌154番-
TTITLE10=うるわしの白百合 -讃美歌496番-
TTITLE11=小さき星は -讃美歌455番-
EXTD=
EXTT0=
EXTT1=
EXTT2=
EXTT3=
EXTT4=
EXTT5=
EXTT6=
EXTT7=
EXTT8=
EXTT9=
EXTT10=
EXTT11=
PLAYORDER=
